o BigButton
v -5.05 0 1.25
v 5.05 0 1.25
v 4.9 0.7 1.1
v -4.9 0.7 1.1
v 4.7 0.8 0.9
v -4.7 0.8 0.9
v 0 0.8 0
v 5.05 0 -1.25
v 4.9 0.7 -1.1
v 4.7 0.8 -0.9
v -5.05 0 -1.25
v -4.9 0.7 -1.1
v -4.7 0.8 -0.9
vn 0 0.20952908873087334 0.97780241407740953
vn 0 0.20952908873087336 0.97780241407740953
vn 0 0.89442719099991574 0.44721359549995815
vn 0 0.89442719099991574 0.44721359549995809
vn 0 1 0
vn 0.97780241407740964 0.20952908873087273 0
vn 0.97780241407740975 0.20952908873087278 0
vn 0.44721359549995793 0.89442719099991586 0
vn 0 0.20952908873087334 -0.97780241407740953
vn 0 0.20952908873087336 -0.97780241407740953
vn 0 0.89442719099991574 -0.44721359549995815
vn 0 0.89442719099991574 -0.44721359549995809
vn -0.97780241407740964 0.20952908873087273 0
vn -0.97780241407740975 0.20952908873087278 0
vn -0.44721359549995793 0.89442719099991586 0
vt 0 1
vt 1 1
vt 0.835 0.835
vt 0.165 0.835
vt 0.785 0.785
vt 0.215 0.785
vt 0.5 0.5
vt 1 0
vt 0.835 0.165
vt 0.785 0.215
vt 0 0
vt 0.165 0.165
vt 0.215 0.215
g BigButton
f 1/1/1 2/2/1 3/3/2 4/4/2
f 4/4/3 3/3/3 5/5/4 6/6/4
f 6/6/5 5/5/5 7/7/5
f 2/2/6 8/8/6 9/9/7 3/3/7
f 3/3/8 9/9/8 10/10/8 5/5/8
f 5/5/5 10/10/5 7/7/5
f 8/8/9 11/11/9 12/12/10 9/9/10
f 9/9/11 12/12/11 13/13/12 10/10/12
f 10/10/5 13/13/5 7/7/5
f 11/11/13 1/1/13 4/4/14 12/12/14
f 12/12/15 4/4/15 6/6/15 13/13/15
f 13/13/5 6/6/5 7/7/5
